<svg width="500" height="500" viewBox="0 0 500 500" fill="none" xmlns="http://www.w3.org/2000/svg">
<rect width="500" height="500" rx="10" fill="#AAAAAA"/>
<path d="M141.068 177.545H158.682V273.852C158.682 283.795 156.338 292.673 151.651 300.486C147.01 308.251 140.453 314.383 131.977 318.881C123.502 323.331 113.559 325.557 102.148 325.557C90.7367 325.557 80.7936 323.331 72.3182 318.881C63.8428 314.383 57.2614 308.251 52.5739 300.486C47.9337 292.673 45.6136 283.795 45.6136 273.852V177.545H63.2273V272.432C63.2273 279.534 64.7898 285.855 67.9148 291.395C71.0398 296.887 75.4905 301.22 81.267 304.392C87.0909 307.517 94.0511 309.08 102.148 309.08C110.244 309.08 117.205 307.517 123.028 304.392C128.852 301.22 133.303 296.887 136.381 291.395C139.506 285.855 141.068 279.534 141.068 272.432V177.545ZM309.197 177.545V323H292.151L212.89 208.795H211.469V323H193.856V177.545H210.901L290.447 292.034H291.867V177.545H309.197ZM461.487 223H443.874C442.832 217.934 441.009 213.483 438.405 209.648C435.848 205.812 432.723 202.593 429.03 199.989C425.384 197.337 421.336 195.348 416.885 194.023C412.434 192.697 407.794 192.034 402.964 192.034C394.158 192.034 386.179 194.259 379.03 198.71C371.928 203.161 366.269 209.719 362.055 218.384C357.889 227.048 355.805 237.678 355.805 250.273C355.805 262.867 357.889 273.497 362.055 282.162C366.269 290.827 371.928 297.384 379.03 301.835C386.179 306.286 394.158 308.511 402.964 308.511C407.794 308.511 412.434 307.848 416.885 306.523C421.336 305.197 425.384 303.232 429.03 300.628C432.723 297.976 435.848 294.733 438.405 290.898C441.009 287.015 442.832 282.564 443.874 277.545H461.487C460.161 284.979 457.747 291.632 454.243 297.503C450.739 303.374 446.383 308.369 441.175 312.489C435.966 316.561 430.119 319.662 423.632 321.793C417.193 323.923 410.304 324.989 402.964 324.989C390.559 324.989 379.527 321.958 369.868 315.898C360.209 309.837 352.609 301.22 347.07 290.045C341.53 278.871 338.76 265.614 338.76 250.273C338.76 234.932 341.53 221.674 347.07 210.5C352.609 199.326 360.209 190.708 369.868 184.648C379.527 178.587 390.559 175.557 402.964 175.557C410.304 175.557 417.193 176.622 423.632 178.753C430.119 180.884 435.966 184.009 441.175 188.128C446.383 192.2 450.739 197.171 454.243 203.043C457.747 208.866 460.161 215.519 461.487 223Z" fill="white"/>
</svg>
